<svg width="100" height="100" viewBox="0 0 100 100" fill="none" xmlns="http://www.w3.org/2000/svg">
<path d="M50 4.96454C50 2.2227 47.7718 -0.0255485 45.0435 0.246237C36.5734 1.08998 28.4293 4.08601 21.4023 8.98575C13.013 14.8353 6.6193 23.1167 3.08339 32.7133C-0.452523 42.3098 -0.960569 52.7598 1.62777 62.6541C4.2161 72.5484 9.77632 81.411 17.5586 88.0467C25.3408 94.6825 34.9708 98.7721 45.1498 99.7642C55.3288 100.756 65.5672 98.6031 74.4843 93.5949C83.4015 88.5868 90.5683 80.9646 95.0185 71.7563C98.746 64.0432 100.417 55.5279 99.9118 47.031C99.749 44.294 97.1768 42.4491 94.4695 42.8825C91.7621 43.3158 89.9512 45.8652 90.0467 48.6054C90.2724 55.0866 88.922 61.5524 86.0786 67.4359C82.5122 74.8156 76.7685 80.9242 69.6222 84.9378C62.4759 88.9514 54.2706 90.677 46.113 89.8819C37.9553 89.0869 30.2377 85.8093 24.0008 80.4913C17.764 75.1734 13.3079 68.0707 11.2336 60.1413C9.15926 52.2118 9.56642 43.8369 12.4002 36.1461C15.2339 28.4552 20.3579 21.8183 27.0812 17.1304C32.4414 13.393 38.6125 11.0376 45.048 10.2362C47.7688 9.89737 50 7.70638 50 4.96454Z" fill="#C4C4C4"/>
</svg>
