<svg width="1440" height="921" viewBox="0 0 1440 921" fill="none" xmlns="http://www.w3.org/2000/svg">
<g clip-path="url(#clip0_254_310)">
<path d="M1899 -237.75H-458V940.75H1899V-237.75Z" fill="#5C7AEA"/>
<path d="M1899 -237.75H-458V940.75H1899V-237.75Z" fill="url(#paint0_radial_254_310)"/>
<path d="M330.122 825.846C818.273 825.846 1214 430.122 1214 -58.0287C1214 -546.179 818.273 -941.904 330.122 -941.904C-158.029 -941.904 -553.753 -546.179 -553.753 -58.0287C-553.753 430.122 -158.029 825.846 330.122 825.846Z" fill="url(#paint1_linear_254_310)" fill-opacity="0.2"/>
<path d="M1110.88 825.846C1599.03 825.846 1994.75 430.122 1994.75 -58.0287C1994.75 -546.179 1599.03 -941.904 1110.88 -941.904C622.728 -941.904 227.003 -546.179 227.003 -58.0287C227.003 430.122 622.728 825.846 1110.88 825.846Z" fill="url(#paint2_linear_254_310)" fill-opacity="0.2"/>
<path d="M720.5 734.513C1208.65 734.513 1604.38 338.788 1604.38 -149.362C1604.38 -637.513 1208.65 -1033.24 720.5 -1033.24C232.349 -1033.24 -163.375 -637.513 -163.375 -149.362C-163.375 338.788 232.349 734.513 720.5 734.513Z" fill="url(#paint3_linear_254_310)" fill-opacity="0.2"/>
</g>
<defs>
<radialGradient id="paint0_radial_254_310" cx="0" cy="0" r="1" gradientUnits="userSpaceOnUse" gradientTransform="translate(708.715 590.146) scale(1514.37)">
<stop stop-color="#E6E6E6"/>
<stop offset="1" stop-color="#5C7AEA"/>
</radialGradient>
<linearGradient id="paint1_linear_254_310" x1="720.5" y1="198.295" x2="720.5" y2="743.351" gradientUnits="userSpaceOnUse">
<stop stop-color="#14279B" stop-opacity="0"/>
<stop offset="1" stop-color="#14279B" stop-opacity="0.5"/>
</linearGradient>
<linearGradient id="paint2_linear_254_310" x1="720.5" y1="198.295" x2="720.5" y2="743.351" gradientUnits="userSpaceOnUse">
<stop stop-color="#14279B" stop-opacity="0"/>
<stop offset="1" stop-color="#14279B" stop-opacity="0.5"/>
</linearGradient>
<linearGradient id="paint3_linear_254_310" x1="720.5" y1="198.295" x2="720.5" y2="743.351" gradientUnits="userSpaceOnUse">
<stop stop-color="#14279B" stop-opacity="0"/>
<stop offset="1" stop-color="#14279B" stop-opacity="0.5"/>
</linearGradient>
<clipPath id="clip0_254_310">
<rect width="2357" height="2357" fill="white" transform="translate(-458 -827)"/>
</clipPath>
</defs>
</svg>
