<svg width="100" height="60" viewBox="0 0 100 60" fill="none" xmlns="http://www.w3.org/2000/svg">
<path d="M4.8584 27.1834C4.8584 24.8074 6.53055 22.7595 8.8586 22.2844L92.9527 5.12238C96.1278 4.47438 99.0711 6.97164 98.9489 10.2099L97.4362 50.2982C97.3386 52.8841 95.284 54.9683 92.6998 55.1029L10.1185 59.404C7.25875 59.5529 4.8584 57.2743 4.8584 54.4107V27.1834Z" fill="url(#paint0_linear_226_119)"/>
<g filter="url(#filter0_i_226_119)">
<path d="M1 23.3338C1 20.9577 2.67215 18.9099 5.0002 18.4348L89.3307 1.22445C92.4301 0.591928 95.3305 2.96023 95.3305 6.12347V45.3497C95.3305 47.9925 93.2739 50.1788 90.6361 50.3403L6.30556 55.5034C3.42935 55.6795 1 53.3944 1 50.5128V23.3338Z" fill="#5C7AEA"/>
</g>
<g filter="url(#filter1_d_226_119)">
<path d="M43.3414 46.7146C42.0007 46.9863 40.7504 46.7376 39.5906 45.9686C38.4308 45.1996 37.715 44.1447 37.4433 42.804L34.2834 27.2089C34.0117 25.8682 34.2604 24.6179 35.0294 23.4581C35.7984 22.2982 36.8533 21.5825 38.194 21.3108L53.7891 18.1509C55.1299 17.8792 56.3801 18.1279 57.5399 18.8969C58.6998 19.6659 59.4155 20.7208 59.6872 22.0615L62.8471 37.6566C63.1188 38.9973 62.8701 40.2476 62.1011 41.4074C61.3321 42.5673 60.2773 43.283 58.9365 43.5547L43.3414 46.7146ZM43.3785 41.8218L56.9625 39.0693C57.5975 38.9407 57.955 38.8315 58.0348 38.7419C58.1098 38.6287 58.0806 38.2428 57.9471 37.5842L55.2019 24.0356C55.0684 23.3769 54.9475 23.0219 54.8391 22.9704C54.7259 22.8954 54.3518 22.9222 53.7167 23.0509L40.1328 25.8033C39.4742 25.9368 39.1073 26.0601 39.0323 26.1732C38.9761 26.2581 39.0146 26.6298 39.1481 27.2884L41.8934 40.8371C42.0268 41.4957 42.1384 41.8649 42.228 41.9447C42.3364 41.9962 42.7199 41.9552 43.3785 41.8218Z" fill="#B1B1B1"/>
<path d="M20.2454 51.3944L16.0489 30.6833L5.67566 32.7851L4.72482 28.0925L30.1286 22.9451L31.0794 27.6377L20.7415 29.7325L24.9381 50.4436L20.2454 51.3944Z" fill="#B1B1B1"/>
<path d="M76.8079 39.9335L72.6114 19.2224L62.2382 21.3242L61.2873 16.6316L86.6911 11.4842L87.6419 16.1768L77.304 18.2715L81.5006 38.9826L76.8079 39.9335Z" fill="#B1B1B1"/>
</g>
<g filter="url(#filter2_d_226_119)">
<path d="M42.4479 46.6931C41.1071 46.9648 39.8568 46.7161 38.697 45.9471C37.5372 45.1781 36.8215 44.1233 36.5498 42.7825L33.3899 27.1874C33.1182 25.8467 33.3669 24.5964 34.1358 23.4366C34.9048 22.2768 35.9597 21.561 37.3005 21.2894L52.8955 18.1294C54.2363 17.8578 55.4866 18.1064 56.6464 18.8754C57.8062 19.6444 58.5219 20.6993 58.7936 22.04L61.9535 37.6351C62.2252 38.9759 61.9766 40.2261 61.2076 41.386C60.4386 42.5458 59.3837 43.2615 58.0429 43.5332L42.4479 46.6931ZM42.4849 41.8003L56.0689 39.0479C56.704 38.9192 57.0614 38.81 57.1412 38.7204C57.2162 38.6072 57.187 38.2214 57.0536 37.5627L54.3083 24.0141C54.1748 23.3555 54.0539 23.0004 53.9455 22.9489C53.8324 22.8739 53.4583 22.9007 52.8232 23.0294L39.2392 25.7818C38.5806 25.9153 38.2138 26.0386 38.1388 26.1517C38.0825 26.2366 38.1211 26.6083 38.2545 27.2669L40.9998 40.8156C41.1333 41.4742 41.2448 41.8434 41.3344 41.9232C41.4428 41.9747 41.8263 41.9337 42.4849 41.8003Z" fill="#E6E6E6"/>
<path d="M19.1644 51.4108L14.9678 30.6997L4.59461 32.8016L3.64377 28.1089L29.0475 22.9615L29.9984 27.6542L19.6604 29.7489L23.857 50.46L19.1644 51.4108Z" fill="#E6E6E6"/>
<path d="M75.9671 39.9012L71.7705 19.1901L61.3973 21.2919L60.4465 16.5993L85.8503 11.4519L86.8011 16.1445L76.4632 18.2392L80.6597 38.9503L75.9671 39.9012Z" fill="#E6E6E6"/>
</g>
<defs>
<filter id="filter0_i_226_119" x="1" y="1.1217" width="94.3301" height="58.3912" filterUnits="userSpaceOnUse" color-interpolation-filters="sRGB">
<feFlood flood-opacity="0" result="BackgroundImageFix"/>
<feBlend mode="normal" in="SourceGraphic" in2="BackgroundImageFix" result="shape"/>
<feColorMatrix in="SourceAlpha" type="matrix" values="0 0 0 0 0 0 0 0 0 0 0 0 0 0 0 0 0 0 127 0" result="hardAlpha"/>
<feOffset dy="4"/>
<feGaussianBlur stdDeviation="2"/>
<feComposite in2="hardAlpha" operator="arithmetic" k2="-1" k3="1"/>
<feColorMatrix type="matrix" values="0 0 0 0 0 0 0 0 0 0 0 0 0 0 0 0 0 0 0.25 0"/>
<feBlend mode="normal" in2="shape" result="effect1_innerShadow_226_119"/>
</filter>
<filter id="filter1_d_226_119" x="1.72461" y="8.48419" width="95.1143" height="50.0121" filterUnits="userSpaceOnUse" color-interpolation-filters="sRGB">
<feFlood flood-opacity="0" result="BackgroundImageFix"/>
<feColorMatrix in="SourceAlpha" type="matrix" values="0 0 0 0 0 0 0 0 0 0 0 0 0 0 0 0 0 0 127 0" result="hardAlpha"/>
<feOffset dx="1" dy="1"/>
<feGaussianBlur stdDeviation="2"/>
<feComposite in2="hardAlpha" operator="out"/>
<feColorMatrix type="matrix" values="0 0 0 0 0 0 0 0 0 0 0 0 0 0 0 0 0 0 0.25 0"/>
<feBlend mode="normal" in2="BackgroundImageFix" result="effect1_dropShadow_226_119"/>
<feBlend mode="normal" in="SourceGraphic" in2="effect1_dropShadow_226_119" result="shape"/>
</filter>
<filter id="filter2_d_226_119" x="0.643555" y="8.4519" width="95.3545" height="50.0608" filterUnits="userSpaceOnUse" color-interpolation-filters="sRGB">
<feFlood flood-opacity="0" result="BackgroundImageFix"/>
<feColorMatrix in="SourceAlpha" type="matrix" values="0 0 0 0 0 0 0 0 0 0 0 0 0 0 0 0 0 0 127 0" result="hardAlpha"/>
<feOffset dx="1" dy="1"/>
<feGaussianBlur stdDeviation="2"/>
<feComposite in2="hardAlpha" operator="out"/>
<feColorMatrix type="matrix" values="0 0 0 0 0 0 0 0 0 0 0 0 0 0 0 0 0 0 0.25 0"/>
<feBlend mode="normal" in2="BackgroundImageFix" result="effect1_dropShadow_226_119"/>
<feBlend mode="normal" in="SourceGraphic" in2="effect1_dropShadow_226_119" result="shape"/>
</filter>
<linearGradient id="paint0_linear_226_119" x1="99.1889" y1="30.8012" x2="4.8584" y2="35.614" gradientUnits="userSpaceOnUse">
<stop stop-color="#3D56B2"/>
<stop offset="0.990485" stop-color="#5C7AE9"/>
</linearGradient>
</defs>
</svg>
